{"title":"The.D.Train.2015.BRRip.480p.x264.AA-VYTO [P2PDL]","uid":12292421,"size":375521990,"categoryP":"video","categoryS":"movies","magnet":"?xt=urn:btih:215fd73f24fe744760aea884c64c106f14c81a4e&amp;dn=The.D.Train.2015.BRRip.480p.x264.AA-VYTO+%5BP2PDL%5D&amp;tr=udp%3A%2F%2Ftracker.openbittorrent.com%3A80&amp;tr=udp%3A%2F%2Fopen.demonii.com%3A1337&amp;tr=udp%3A%2F%2Ftracker.coppersurfer.tk%3A6969&amp;tr=udp%3A%2F%2Fexodus.desync.com%3A6969","seeders":4,"leechers":3,"uploader":"ValidusVyto","files":7,"time":1440574650,"description":"____    ____ ____    ____ .___________.  ______   \n     /   /      /   / |           | /  __    \n    /   /      /   /  `---|  |----`|  |  |  | \n        /     _    _/       |  |     |  |  |  | \n       /        |  |         |  |     |  `--'  | \n    __/         |__|         |__|      ______/  \n                                                  \nPresenting Small Encodes with quality for years!\n                                                                                                   \n                                                                                                   \n\nThe.D.Train.2015.BRRip.480p.x264.AA-VYTO\n\n\nGenre: Comedy &lt;a href=&quot;\nhttp://www.imdb.com/title/tt3534602/&quot; rel=&quot;nofollow&quot; target=&quot;_NEW&quot;&gt;\nhttp://www.imdb.com/title/tt3534602/&lt;/a&gt;\n\n\nGeneral\nFormat                         : MPEG-4\nFile size                      : 352 MiB\nDuration                       : 1h 41mn\nOverall bit rate               : 486 Kbps\n\nVideo\nFormat                         : AVC\nBit rate                       : 451 Kbps\nWidth                          : 720 pixels\nHeight                         : 304 pixels\nDisplay aspect ratio           : 2.35:1\nFrame rate mode                : Constant\nFrame rate                     : 23.976 fps\nBit depth                      : 8 bits\nStream size                    : 326 MiB (93%)\nWriting library                : x264 core 148 r2579\n\nAudio\nFormat                         : AAC\nBit rate                       : 31.9 Kbps\nChannel(s)                     : 2 channels \nChannel positions              : Front: L R \nSampling rate                  : 48.0 KHz \nStream size                    : 23.1 MiB (7%)\nLanguage                       : English\n\nSubtitle                       : Yes\nSource                         : 720p.BluRay.x264-DRONES\t\n\nScreenshots:\n &lt;a href=&quot;\nhttp://ititli.com/MP&quot; rel=&quot;nofollow&quot; target=&quot;_NEW&quot;&gt;\nhttp://ititli.com/MP&lt;/a&gt; &lt;a href=&quot;\nhttp://ititli.com/Mf&quot; rel=&quot;nofollow&quot; target=&quot;_NEW&quot;&gt;\nhttp://ititli.com/Mf&lt;/a&gt; &lt;a href=&quot;\nhttp://ititli.com/Mu&quot; rel=&quot;nofollow&quot; target=&quot;_NEW&quot;&gt;\nhttp://ititli.com/Mu&lt;/a&gt; &lt;a href=&quot;\nhttp://ititli.com/Mv&quot; rel=&quot;nofollow&quot; target=&quot;_NEW&quot;&gt;\nhttp://ititli.com/Mv&lt;/a&gt; &lt;a href=&quot;\nhttp://ititli.com/MR&quot; rel=&quot;nofollow&quot; target=&quot;_NEW&quot;&gt;\nhttp://ititli.com/MR&lt;/a&gt; &lt;a href=&quot;\nhttp://ititli.com/My&quot; rel=&quot;nofollow&quot; target=&quot;_NEW&quot;&gt;\nhttp://ititli.com/My&lt;/a&gt; &lt;a href=&quot;\nhttp://ititli.com/M3&quot; rel=&quot;nofollow&quot; target=&quot;_NEW&quot;&gt;\nhttp://ititli.com/M3&lt;/a&gt; &lt;a href=&quot;\nhttp://ititli.com/ME&quot; rel=&quot;nofollow&quot; target=&quot;_NEW&quot;&gt;\nhttp://ititli.com/ME&lt;/a&gt; &lt;a href=&quot;\nhttp://ititli.com/MQ&quot; rel=&quot;nofollow&quot; target=&quot;_NEW&quot;&gt;\nhttp://ititli.com/MQ&lt;/a&gt; &lt;a href=&quot;\nhttp://ititli.com/MS&quot; rel=&quot;nofollow&quot; target=&quot;_NEW&quot;&gt;\nhttp://ititli.com/MS&lt;/a&gt; &lt;a href=&quot;\nhttp://ititli.com/MZ&quot; rel=&quot;nofollow&quot; target=&quot;_NEW&quot;&gt;\nhttp://ititli.com/MZ&lt;/a&gt; &lt;a href=&quot;\nhttp://ititli.com/Mc&quot; rel=&quot;nofollow&quot; target=&quot;_NEW&quot;&gt;\nhttp://ititli.com/Mc&lt;/a&gt;\n\n----------------------------------------------------------------------------------------------------\n\n\nEncoder Notes: Looking For Early Access To Anything You Can Provide DVDScr, R5, DVDR, BluRay, Direct\nAudio, Music Releases and Seedboxes. If You Got anything to offer please contact us.\n\nSupport us by donating BC - 1FgwdzPsd1y25Gea8wP1qni35uGCtmkRCD","torrent":{"xt":"urn:btih:215fd73f24fe744760aea884c64c106f14c81a4e","amp;dn":"The.D.Train.2015.BRRip.480p.x264.AA-VYTO+%5BP2PDL%5D","amp;tr":["udp%3A%2F%2Ftracker.openbittorrent.com%3A80","udp%3A%2F%2Fopen.demonii.com%3A1337","udp%3A%2F%2Ftracker.coppersurfer.tk%3A6969","udp%3A%2F%2Fexodus.desync.com%3A6969"],"infoHash":"215fd73f24fe744760aea884c64c106f14c81a4e","infoHashBuffer":{"type":"Buffer","data":[33,95,215,63,36,254,116,71,96,174,168,132,198,76,16,111,20,200,26,78]},"announce":[],"urlList":[]}}